# xmcd CD database file
#
# Track frame offsets:
#	150
#	29901
#	66802
#	87844
#	96735
#	129276
#	179629
#	191016
#	199247
#	233653
#
# Disc length: 3328 seconds
#
# Revision: 1
# Processed by: cddbd v1.5.2PL0 Copyright (c) Steve Scherf et al.
# Submitted via: CDex 1.70beta2
#
DISCID=930cfe0a
DTITLE=Various Artist - Live at the Dungeon
DYEAR=2006
DGENRE=Jazz
TTITLE0=Ubirr
TTITLE1=Summertime
TTITLE2=Splanky
TTITLE3=Laf'n Sax
TTITLE4=Willow Weep for Me
TTITLE5=Let It Ring
TTITLE6=Blues Skies
TTITLE7=Royal Tomatoes
TTITLE8=I Wish I Knew How It Would Feel to be Free
TTITLE9=Golden Wedding
EXTD=YEAR: 2006
EXTT0=
EXTT1=
EXTT2=
EXTT3=
EXTT4=
EXTT5=
EXTT6=
EXTT7=
EXTT8=
EXTT9=
PLAYORDER=
